<svg xmlns="http://www.w3.org/2000/svg" width="36.086" height="36.087" viewBox="0 0 36.086 36.087">
  <path id="agriculture" d="M26.206,28.055a9.544,9.544,0,0,0-7.1-4.593V20.326a16.662,16.662,0,0,1,1.99-8.1c5.532-.01,9.158-1.628,12.787-5.656a13.942,13.942,0,0,0,2.209-3.155,6.665,6.665,0,0,0-3.337-2.7c-1.695-.7-5.208-1.506-9.7.962l-.023.013C20.4,3.226,18.681,5.321,18.328,7.438a5.116,5.116,0,0,0,.9,3.8,15.578,15.578,0,0,0-1.178,2.618,15.579,15.579,0,0,0-1.178-2.618,5.116,5.116,0,0,0,.9-3.8C17.415,5.321,15.7,3.226,13.06,1.69l-.023-.013C8.524-.8,4.981.009,3.271.715a6.752,6.752,0,0,0-3.266,2.7A12.105,12.105,0,0,0,2.139,6.562a16.59,16.59,0,0,0,5.749,4.355A17.487,17.487,0,0,0,15,12.222a16.662,16.662,0,0,1,1.99,8.1v3.135a9.544,9.544,0,0,0-7.1,4.593A7.436,7.436,0,0,0,.006,35.03v1.057H36.091V35.03a7.436,7.436,0,0,0-9.884-6.975ZM20.413,7.786c.246-1.47,1.62-3.063,3.676-4.263,3.519-1.931,6.213-1.532,7.854-.856a6.141,6.141,0,0,1,1.578.954,13.8,13.8,0,0,1-1.206,1.525c-2.867,3.184-5.627,4.624-9.669,4.908a15.022,15.022,0,0,1,5.59-3.867l-.794-1.96a16.934,16.934,0,0,0-6.887,5.03,2.8,2.8,0,0,1-.142-1.472ZM3.706,5.142A11.936,11.936,0,0,1,2.525,3.619a5.75,5.75,0,0,1,1.558-.951c1.36-.56,4.194-1.191,7.925.856,2.056,1.2,3.43,2.793,3.676,4.263a2.8,2.8,0,0,1-.142,1.472,16.933,16.933,0,0,0-6.887-5.03L7.86,6.187a15.021,15.021,0,0,1,5.592,3.869A13.2,13.2,0,0,1,3.706,5.142ZM2.228,33.972a5.318,5.318,0,0,1,7.656-3.619l.986.509.461-1.009a7.37,7.37,0,0,1,13.436,0l.461,1.009.986-.509a5.319,5.319,0,0,1,7.656,3.619Z" transform="translate(-0.005 0)"/>
</svg>
