<svg xmlns="http://www.w3.org/2000/svg" width="36" height="33.539" viewBox="0 0 36 33.539">
  <path id="articeles_and_publications" data-name="articeles and publications" d="M35.44.783A1.407,1.407,0,0,0,34.205.554c-1.629.468-3.705.336-6.334.169C26.226.618,24.361.5,22.218.5A5.612,5.612,0,0,0,18,2.41,5.612,5.612,0,0,0,13.781.5C11.639.5,9.773.618,8.128.723c-2.628.167-4.7.3-6.334-.169A1.406,1.406,0,0,0,0,1.906V25.235a5.625,5.625,0,0,0,5.625,5.639h10.2a1.406,1.406,0,1,0,0-2.812H5.625a2.812,2.812,0,0,1-2.812-2.823v-.746a5.59,5.59,0,0,0,2.812.757H16.1a.7.7,0,0,1,.623.376,1.475,1.475,0,0,0,2.682-.833V6.125a2.816,2.816,0,0,1,2.812-2.812c2.053,0,3.871.116,5.475.218a33.151,33.151,0,0,0,5.494.071V13.719a1.406,1.406,0,1,0,2.812,0V1.906A1.407,1.407,0,0,0,35.44.783ZM5.625,22.437a2.816,2.816,0,0,1-2.812-2.812V3.6A33.148,33.148,0,0,0,8.306,3.53c1.6-.1,3.422-.218,5.475-.218a2.816,2.816,0,0,1,2.813,2.812V22.472a3.519,3.519,0,0,0-.492-.035ZM14.2,8.445A1.406,1.406,0,0,1,12.8,9.851H6.679a1.406,1.406,0,1,1,0-2.812H12.8A1.406,1.406,0,0,1,14.2,8.445ZM12.093,14.07a1.406,1.406,0,0,1-1.406,1.406H6.679a1.406,1.406,0,1,1,0-2.812h4.008A1.406,1.406,0,0,1,12.093,14.07ZM28.8,18.4l-7.72,7.7a1.407,1.407,0,0,0-.352.587l-1.681,5.535a1.406,1.406,0,0,0,1.721,1.764l5.676-1.572a1.407,1.407,0,0,0,.618-.36l7.7-7.69A4.219,4.219,0,0,0,28.8,18.4ZM25.334,29.8l-2.855.791.836-2.751,5.209-5.2,1.989,1.989Zm7.442-7.428-.272.272-1.989-1.989.272-.271a1.406,1.406,0,0,1,1.99,1.988Zm0,0" transform="translate(0 -0.5)"/>
</svg>
