<svg xmlns="http://www.w3.org/2000/svg" width="36" height="36" viewBox="0 0 36 36">
  <g id="budgeting" transform="translate(0 0)">
    <path id="Path_206" data-name="Path 206" d="M154,252.856a1.056,1.056,0,0,1-1.055-1.055,1.055,1.055,0,0,0-2.109,0,3.169,3.169,0,0,0,2.121,2.986v.923a1.055,1.055,0,0,0,2.109,0v-.931A3.164,3.164,0,0,0,154,248.638a1.055,1.055,0,1,1,1.055-1.055,1.055,1.055,0,1,0,2.109,0,3.169,3.169,0,0,0-2.1-2.979v-1.549a1.055,1.055,0,1,0-2.109,0V244.6A3.164,3.164,0,0,0,154,250.747a1.055,1.055,0,0,1,0,2.109Zm0,0" transform="translate(-140.234 -224.985)"/>
    <path id="Path_207" data-name="Path 207" d="M4.3,34.278C6.493,35.453,9.507,36,13.781,36a23.29,23.29,0,0,0,8.129-1.127A3.158,3.158,0,0,0,24.328,36h8.508a3.162,3.162,0,0,0,2.356-5.273,3.156,3.156,0,0,0,0-4.219,3.156,3.156,0,0,0,0-4.219,3.162,3.162,0,0,0-2.356-5.273H24.328c-.1,0-.2.005-.3.015a14.443,14.443,0,0,0-3.666-3.182,3.161,3.161,0,0,0-1-4.966l1.758-5.392a1.055,1.055,0,0,0-1-1.382H16.764a3.164,3.164,0,0,0-5.966,0H7.453a1.055,1.055,0,0,0-1,1.382L8.208,8.883a3.161,3.161,0,0,0-1,4.967A15.044,15.044,0,0,0,0,26.508c0,3.628,1.446,6.242,4.3,7.77ZM33.89,24.4a1.056,1.056,0,0,1-1.055,1.055H24.328a1.055,1.055,0,0,1,0-2.109h8.508A1.056,1.056,0,0,1,33.89,24.4Zm0,4.219a1.056,1.056,0,0,1-1.055,1.055H24.328a1.055,1.055,0,0,1,0-2.109h8.508A1.056,1.056,0,0,1,33.89,28.617Zm-1.055,5.273H24.328a1.055,1.055,0,1,1,0-2.109h8.508a1.055,1.055,0,1,1,0,2.109ZM33.89,20.18a1.056,1.056,0,0,1-1.055,1.055H24.328a1.055,1.055,0,0,1,0-2.109h8.508A1.056,1.056,0,0,1,33.89,20.18ZM17.969,12.8H9.562a1.055,1.055,0,0,1,0-2.109H18A1.055,1.055,0,0,1,18,12.8h-.03Zm-6.3-8.578a1.055,1.055,0,0,0,1.055-1.055,1.055,1.055,0,0,1,2.109,0V5.274a1.055,1.055,0,1,0,2.109,0V4.219h1.711L17.234,8.578H10.328L8.906,4.219Zm-1.9,10.687H17.79a11.919,11.919,0,0,1,4.267,3.074,3.156,3.156,0,0,0-.085,4.309,3.156,3.156,0,0,0,0,4.219,3.156,3.156,0,0,0,0,4.219,3.152,3.152,0,0,0-.808,2.109c0,.022,0,.043,0,.065a21.315,21.315,0,0,1-7.384.99c-3.913,0-6.61-.468-8.487-1.473-2.173-1.163-3.185-3.041-3.185-5.91a12.8,12.8,0,0,1,7.659-11.6Zm0,0" transform="translate(0 0)"/>
  </g>
</svg>
