<svg xmlns="http://www.w3.org/2000/svg" width="36.964" height="32.327" viewBox="0 0 36.964 32.327">
  <g id="business_corporate_training" data-name="business corporate training" transform="translate(0.001 0)">
    <path id="Path_184" data-name="Path 184" d="M33.56,0H17.321a3.407,3.407,0,0,0-3.4,3.4V13.82L10.9,12.32c-.1-.051-.205-.1-.31-.144a5.142,5.142,0,1,0-7.095.314A6.853,6.853,0,0,0,0,18.482v3.48a3.408,3.408,0,0,0,2.32,3.226v6.053A1.083,1.083,0,0,0,3.4,32.324h6.959a1.083,1.083,0,0,0,1.083-1.083V19.074l3.467,1.733a2.971,2.971,0,0,0,3.941-1.242h3.883L18.623,30.871a1.083,1.083,0,0,0,2.036.74l4.38-12.046H25.8l4.425,12.05a1.083,1.083,0,0,0,2.033-.747l-4.151-11.3H33.56a3.4,3.4,0,0,0,3.4-3.4V3.4A3.4,3.4,0,0,0,33.56,0ZM3.905,8.622A2.977,2.977,0,1,1,6.882,11.6,2.98,2.98,0,0,1,3.905,8.622ZM17,18.407l-.008.024a.8.8,0,0,1-1.113.439l-5.035-2.517a1.083,1.083,0,0,0-1.567.969V30.158H4.485V24.281A1.083,1.083,0,0,0,3.4,23.2a1.238,1.238,0,0,1-1.237-1.237v-3.48a4.718,4.718,0,0,1,4.717-4.717h.957a4.719,4.719,0,0,1,2.1.494l6.739,3.353a.649.649,0,0,1,.324.8Zm17.8-2.245a1.228,1.228,0,0,1-.362.875,1.245,1.245,0,0,1-.875.362H19.087l-.005-.017,2.688-5.375a1.083,1.083,0,0,0-1.937-.969L17.54,15.622,16.084,14.9V3.4a1.238,1.238,0,0,1,1.237-1.237H33.56a1.244,1.244,0,0,1,.875.363A1.227,1.227,0,0,1,34.8,3.4Zm0,0" transform="translate(0 0)"/>
    <path id="Path_185" data-name="Path 185" d="M269.513,64.266H258.129a1.063,1.063,0,0,0,0,2.126h11.384a1.063,1.063,0,0,0,0-2.126Zm0,0" transform="translate(-238.166 -59.712)"/>
    <path id="Path_186" data-name="Path 186" d="M344.153,120.5h-5.692a1.063,1.063,0,0,0,0,2.126h5.692a1.063,1.063,0,0,0,0-2.126Zm0,0" transform="translate(-312.806 -111.789)"/>
    <path id="Path_187" data-name="Path 187" d="M344.153,176.734h-5.692a1.063,1.063,0,0,0,0,2.126h5.692a1.063,1.063,0,0,0,0-2.126Zm0,0" transform="translate(-312.806 -163.958)"/>
  </g>
</svg>
