<svg xmlns="http://www.w3.org/2000/svg" width="36.5" height="27.002" viewBox="0 0 36.5 27.002">
  <g id="business_plans" data-name="business plans" transform="translate(0.25 -64.4)">
    <g id="Group_847" data-name="Group 847" transform="translate(0 64.65)">
      <path id="Path_176" data-name="Path 176" d="M13.023,65.553v8.153a.9.9,0,0,0,.9.9H17.1v2.453H4.98a.9.9,0,0,0-.9.9v3.225H.9a.9.9,0,0,0-.9.9v8.153a.9.9,0,0,0,.9.9H9.057a.9.9,0,0,0,.9-.9V82.1a.9.9,0,0,0-.9-.9H5.876V78.863H17.093v2.329H13.92a.9.9,0,0,0-.9.9v8.153a.9.9,0,0,0,.9.9h8.153a.9.9,0,0,0,.9-.9V82.1a.9.9,0,0,0-.9-.9H18.9V78.863H30.116v2.329H26.943a.9.9,0,0,0-.9.9v8.153a.9.9,0,0,0,.9.9H35.1a.9.9,0,0,0,.9-.9V82.1a.9.9,0,0,0-.9-.9H31.923V77.967a.9.9,0,0,0-.9-.9H18.9V74.61h3.173a.9.9,0,0,0,.9-.9V65.553a.9.9,0,0,0-.9-.9H13.92A.9.9,0,0,0,13.023,65.553ZM8.153,89.338H1.807V82.984H8.153Zm13.016,0H14.816V82.984H21.17Zm13.016,0H27.839V82.984h6.354v6.354ZM14.823,66.45h6.354V72.8H14.823V66.45Z" transform="translate(0 -64.65)" stroke="#000" stroke-width="0.5"/>
    </g>
  </g>
</svg>
