<svg xmlns="http://www.w3.org/2000/svg" width="36" height="33.824" viewBox="0 0 36 33.824">
  <g id="change_management" data-name="change management" transform="translate(0 -14.806)">
    <g id="Group_880" data-name="Group 880" transform="translate(0 14.806)">
      <g id="Group_879" data-name="Group 879">
        <path id="Path_218" data-name="Path 218" d="M28.84,111.427a1.27,1.27,0,0,0,.9.373,1.248,1.248,0,0,0,.882-.359l5.092-4.965a1.242,1.242,0,0,0,.375-.9,1.285,1.285,0,0,0-.375-.9L30.625,99.71a1.26,1.26,0,1,0-1.771,1.794l2.881,2.812h-3.2a6.576,6.576,0,0,1-5.034-2.343l-11.1-15.049A9.1,9.1,0,0,0,5,83.094H1.357a1.256,1.256,0,1,0,0,2.512H5a6.569,6.569,0,0,1,5.364,2.783L21.506,103.5c.015.022.029.037.044.059a9.063,9.063,0,0,0,7,3.288h3.2l-2.881,2.812A1.235,1.235,0,0,0,28.84,111.427Z" transform="translate(-0.093 -77.977)"/>
        <path id="Path_219" data-name="Path 219" d="M276.436,20.29l-5.223-5.118a1.288,1.288,0,0,0-1.806,1.836l2.975,2.915h-3.26a9.234,9.234,0,0,0-7.134,3.357.416.416,0,0,0-.045.06l-2.128,2.9a1.284,1.284,0,0,0,.277,1.8,1.3,1.3,0,0,0,.757.247,1.265,1.265,0,0,0,1.034-.525l2.106-2.863a6.65,6.65,0,0,1,5.133-2.4h3.26l-2.975,2.915a1.288,1.288,0,0,0,1.806,1.836l5.223-5.118a1.3,1.3,0,0,0,0-1.843Z" transform="translate(-240.826 -14.806)"/>
        <path id="Path_220" data-name="Path 220" d="M12.552,298.541l1.866-2.533a1.287,1.287,0,0,0-2.076-1.521l-1.873,2.555c-.007.015-.015.022-.022.037A6.708,6.708,0,0,1,5,299.882H1.281a1.285,1.285,0,0,0,0,2.57H5A9.261,9.261,0,0,0,12.552,298.541Z" transform="translate(0 -273.709)"/>
      </g>
    </g>
  </g>
</svg>
