<svg id="cost_service_" data-name="cost &amp; service " xmlns="http://www.w3.org/2000/svg" width="23.203" height="36" viewBox="0 0 23.203 36">
  <path id="Path_213" data-name="Path 213" d="M23.2,11.6A11.6,11.6,0,1,0,8.437,22.764v4.8H5.273a1.055,1.055,0,0,0-.746,1.8l6.328,6.328a1.054,1.054,0,0,0,1.491,0l6.328-6.328a1.055,1.055,0,0,0-.746-1.8H14.766v-4.8A11.623,11.623,0,0,0,23.2,11.6Zm-21.094,0A9.492,9.492,0,1,1,11.6,21.094,9.5,9.5,0,0,1,2.109,11.6Zm11.6,18.07h1.672L11.6,33.454,7.82,29.672H9.492a1.055,1.055,0,0,0,1.055-1.055V23.155c.347.031.7.048,1.055.048s.707-.017,1.055-.048v5.462A1.055,1.055,0,0,0,13.711,29.672Zm0,0"/>
  <path id="Path_214" data-name="Path 214" d="M124.423,73.89V72.329a3.205,3.205,0,0,0-1.057-6.231,1.068,1.068,0,1,1,1.068-1.068,1.068,1.068,0,1,0,2.137,0A3.21,3.21,0,0,0,124.423,62v-.935a1.068,1.068,0,1,0-2.137,0v.943a3.205,3.205,0,0,0,1.08,6.223A1.068,1.068,0,1,1,122.3,69.3a1.068,1.068,0,0,0-2.137,0,3.211,3.211,0,0,0,2.125,3.018V73.89a1.068,1.068,0,1,0,2.137,0Zm0,0" transform="translate(-111.753 -55.726)"/>
</svg>
