<svg xmlns="http://www.w3.org/2000/svg" width="32.36" height="29.012" viewBox="0 0 32.36 29.012">
  <g id="development_sector_management" data-name="development sector management" transform="translate(-23.998 -48)">
    <path id="Path_174" data-name="Path 174" d="M25.672,70.416a1.665,1.665,0,0,0,1.184-.492l9.417-9.459,3.838,3.855a1.669,1.669,0,0,0,2.367,0L53.01,53.741v3.786a1.674,1.674,0,1,0,3.348,0V49.681A1.677,1.677,0,0,0,54.684,48H46.873a1.681,1.681,0,0,0,0,3.362h3.77l-9.349,9.391L37.456,56.9a1.669,1.669,0,0,0-2.367,0l-10.6,10.647a1.682,1.682,0,0,0,1.184,2.87Z" transform="translate(0 0)"/>
    <path id="Path_175" data-name="Path 175" d="M54.686,416H25.674a1.649,1.649,0,1,0,0,3.3H54.686a1.649,1.649,0,1,0,0-3.3Z" transform="translate(-0.001 -342.286)"/>
  </g>
</svg>
