<svg xmlns="http://www.w3.org/2000/svg" width="36.5" height="32.984" viewBox="0 0 36.5 32.984">
  <g id="digital_transformation" data-name="digital transformation" transform="translate(0.25 -24.75)">
    <path id="Path_217" data-name="Path 217" d="M33.891,25H2.109A2.112,2.112,0,0,0,0,27.109V48.063a2.112,2.112,0,0,0,2.109,2.109H12.445v5.2H6.75a1.055,1.055,0,0,0,0,2.109h22.5a1.055,1.055,0,0,0,0-2.109h-5.7v-5.2H33.891A2.112,2.112,0,0,0,36,48.063V27.109A2.112,2.112,0,0,0,33.891,25ZM21.445,55.375H14.555v-5.2h6.891Zm12.445-7.312H2.109V27.109H33.891C33.892,48.518,33.9,48.063,33.891,48.063Z" stroke="#000" stroke-width="0.5"/>
  </g>
</svg>
