<svg xmlns="http://www.w3.org/2000/svg" width="37" height="33.029" viewBox="0 0 37 33.029">
  <g id="due_dilligence" data-name="due dilligence" transform="translate(0.5 -27.735)">
    <g id="Group_862" data-name="Group 862" transform="translate(0 28.235)">
      <path id="Path_192" data-name="Path 192" d="M31.57,220.9a1.055,1.055,0,0,0-1.424.444,13.466,13.466,0,0,1-25.392-6.2l.846.845A1.054,1.054,0,1,0,7.093,214.5l-2.646-2.642a1.056,1.056,0,0,0-1.492,0L.308,214.5A1.054,1.054,0,0,0,1.8,215.985l.845-.843a15.576,15.576,0,0,0,29.37,7.175A1.052,1.052,0,0,0,31.57,220.9Z" transform="translate(0 -198.629)" stroke="#000" stroke-width="1"/>
      <path id="Path_193" data-name="Path 193" d="M86.856,42.908a1.056,1.056,0,0,0-1.492,0l-.845.843a15.576,15.576,0,0,0-29.37-7.175,1.054,1.054,0,0,0,1.869.977,13.466,13.466,0,0,1,25.392,6.2l-.846-.845A1.054,1.054,0,0,0,80.072,44.4l2.646,2.642a1.056,1.056,0,0,0,1.492,0L86.856,44.4A1.052,1.052,0,0,0,86.856,42.908Z" transform="translate(-51.165 -28.235)" stroke="#000" stroke-width="1"/>
    </g>
    <path id="Path_194" data-name="Path 194" d="M207.285,151.765a10.225,10.225,0,0,1-2.6-1.207.873.873,0,0,1-.2-.83,1.192,1.192,0,0,1,.785-.94,2.1,2.1,0,0,1,1.9.279,1.053,1.053,0,0,0,1.261-1.687,4.2,4.2,0,0,0-1.569-.7v-.429a1.053,1.053,0,1,0-2.106,0v.5l-.093.026a3.276,3.276,0,0,0-2.247,2.567,2.922,2.922,0,0,0,.97,2.877,11.127,11.127,0,0,0,3.2,1.536,1.357,1.357,0,0,1,.983,1.592,1.774,1.774,0,0,1-1.761,1.5,2.946,2.946,0,0,1-2.117-.555,1.053,1.053,0,1,0-1.153,1.763,4.69,4.69,0,0,0,2.224.857v.481a1.053,1.053,0,0,0,2.106,0V158.8a3.773,3.773,0,0,0,1.561-.867,3.952,3.952,0,0,0,1.217-2.244A3.47,3.47,0,0,0,207.285,151.765Z" transform="translate(-187.846 -108.725)" stroke="#000" stroke-width="1"/>
  </g>
</svg>
