<svg xmlns="http://www.w3.org/2000/svg" width="36" height="30.028" viewBox="0 0 36 30.028">
  <path id="Education" d="M35.3,50.5a1.055,1.055,0,0,0,0-1.988L18.351,42.529a1.054,1.054,0,0,0-.7,0L.7,48.508A1.055,1.055,0,0,0,.7,50.5l6.713,2.386v6.88c0,1.135,1.185,2.1,3.521,2.854A23.58,23.58,0,0,0,18,63.641a23.58,23.58,0,0,0,7.065-1.025c2.336-.758,3.521-1.718,3.521-2.854v-6.88l2.772-.985v9.533a3.172,3.172,0,0,0,0,5.984v4.028a1.055,1.055,0,0,0,2.109,0V67.414a3.172,3.172,0,0,0,0-5.984V51.147Zm-2.886,14.99a1.063,1.063,0,1,1,1.063-1.063A1.065,1.065,0,0,1,32.412,65.486ZM18,44.642l13.786,4.864L18,54.407l-13.786-4.9ZM26.477,59.6a6.514,6.514,0,0,1-2.559,1.158A22.237,22.237,0,0,1,18,61.532a22.237,22.237,0,0,1-5.917-.771A6.513,6.513,0,0,1,9.523,59.6V53.632l8.123,2.888a1.054,1.054,0,0,0,.707,0l8.123-2.888V59.6Z" transform="translate(0 -42.469)"/>
</svg>
