<svg xmlns="http://www.w3.org/2000/svg" width="18.829" height="35.706" viewBox="0 0 18.829 35.706">
  <g id="environment_and_energy" data-name="environment and energy" transform="translate(-120.999)">
    <path id="Path_239" data-name="Path 239" d="M121.551,35.582a1.046,1.046,0,0,0,1.341-.308L139.63,12.191a1.046,1.046,0,0,0-.847-1.66h-4.435l5.334-8.949a1.046,1.046,0,0,0-.9-1.582H126.23a1.046,1.046,0,0,0-1.015.793L121.031,17.6a1.046,1.046,0,0,0,1.015,1.3h4.769l-5.749,15.395A1.046,1.046,0,0,0,121.551,35.582ZM129.3,18.219a1.046,1.046,0,0,0-.98-1.412h-4.938l3.663-14.715h9.894l-5.334,8.949a1.046,1.046,0,0,0,.9,1.582h4.226L125.72,27.81Z" transform="translate(0)"/>
  </g>
</svg>
