<svg xmlns="http://www.w3.org/2000/svg" width="36.5" height="36.5" viewBox="0 0 36.5 36.5">
  <g id="ERP_Implemenatation" data-name="ERP Implemenatation" transform="translate(0.25 0.25)">
    <path id="Path_188" data-name="Path 188" d="M35.544,29.788,31.019,26.67a1.055,1.055,0,0,0-1.653.868V29.6H23.239a5.344,5.344,0,0,0-10.477,0H6.4V23.239a5.359,5.359,0,0,0,4.184-4.184H25.418a5.344,5.344,0,1,0,6.293-6.293V5.344a1.055,1.055,0,0,0-1.055-1.055H23.239a5.343,5.343,0,0,0-10.509.178L8.217,1.357a1.055,1.055,0,0,0-1.653.868V4.289H3.234a1.055,1.055,0,1,0,0,2.109H6.563V8.462a1.056,1.056,0,0,0,1.653.868l4.513-3.11A5.343,5.343,0,0,0,23.239,6.4H29.6v6.363a5.359,5.359,0,0,0-4.184,4.184H10.582a5.344,5.344,0,1,0-6.293,6.293v7.418a1.055,1.055,0,0,0,1.055,1.055h7.418a5.344,5.344,0,0,0,10.477,0h6.128v2.063a1.056,1.056,0,0,0,1.653.868l4.524-3.118a1.055,1.055,0,0,0,0-1.737ZM8.673,6.454V4.233l1.611,1.11ZM18,8.578a3.234,3.234,0,1,1,3.234-3.234A3.238,3.238,0,0,1,18,8.578Zm12.656,6.188A3.234,3.234,0,1,1,27.422,18,3.238,3.238,0,0,1,30.656,14.766ZM2.109,18a3.234,3.234,0,1,1,3.234,3.234A3.238,3.238,0,0,1,2.109,18ZM18,33.891a3.234,3.234,0,1,1,3.234-3.234A3.238,3.238,0,0,1,18,33.891Zm13.476-2.124V29.546l1.611,1.11Z" stroke="#000" stroke-width="0.5"/>
  </g>
</svg>
