<svg xmlns="http://www.w3.org/2000/svg" width="36.5" height="26.975" viewBox="0 0 36.5 26.975">
  <g id="FDI" transform="translate(0.25 0.25)">
    <path id="Path_150" data-name="Path 150" d="M143.748,180.934h-4.108a.694.694,0,0,0-.694.694v.586h-4.32a.691.691,0,0,0-.265.053l-5.534,2.29a2.581,2.581,0,0,0-1.389,3.39l.019.044a2.66,2.66,0,0,0,.684.956,5.316,5.316,0,0,1-2.584.05l-5.433-1.244a2.517,2.517,0,0,0-1.182,4.893l6.482,1.647a6.686,6.686,0,0,0,4.109-.257l8.244-3.233h1.168v.365a.694.694,0,0,0,.694.694h4.108a.694.694,0,0,0,.694-.694v-9.54a.694.694,0,0,0-.694-.694Zm-6.1,8.481a.7.7,0,0,0-.253.048l-8.366,3.281a5.3,5.3,0,0,1-3.261.2l-6.482-1.647a1.129,1.129,0,0,1,.53-2.2l5.433,1.244a6.7,6.7,0,0,0,3.911-.278l1.576-.606.1-.036,3.554-1.368.075-.029a.694.694,0,1,0-.5-1.295l-.081.031-3.615,1.39a1.245,1.245,0,0,1-1.532-.709l-.019-.044a1.193,1.193,0,0,1,.642-1.567l5.406-2.238h4.182v5.814Zm5.408,1.059h-2.721v-8.153h2.721Zm0,0" transform="translate(-108.441 -168.027)" stroke="#000" stroke-width="0.5"/>
    <path id="Path_151" data-name="Path 151" d="M6.755,12.261H5.5V5.78h.192a3.26,3.26,0,0,0,1.481-.357.684.684,0,0,0,.063-.036l4.492-2.931a1.87,1.87,0,0,1,1.931.18l.324.242-.058.084c-.086.125-.168.252-.245.382a6.73,6.73,0,0,0-.9,2.622A2.092,2.092,0,0,0,13,10.136h5.135a1.063,1.063,0,0,1,.428,2.035.9.9,0,0,1-.123.045l-.01,0a1.059,1.059,0,0,1-.3.041H12.3a.694.694,0,1,0,0,1.387h5.835a2.462,2.462,0,0,0,.528-.057,6.926,6.926,0,0,0,.88.058A6.824,6.824,0,1,0,14.9,1.83l-.411-.307a3.266,3.266,0,0,0-3.424-.287A.715.715,0,0,0,11,1.272L6.507,4.2a1.867,1.867,0,0,1-.819.19H5.5V4.141A.694.694,0,0,0,4.8,3.447H.694A.694.694,0,0,0,0,4.141v9.54a.694.694,0,0,0,.694.694H4.8a.694.694,0,0,0,.694-.694v-.033H6.755a.694.694,0,0,0,0-1.387ZM12.3,8.044a.7.7,0,0,1,.446-.656A6.747,6.747,0,0,0,13,8.749a.705.705,0,0,1-.7-.7Zm12.684-1.22A5.445,5.445,0,0,1,20.376,12.2a2.469,2.469,0,0,0,.212-1,2.437,2.437,0,0,0-.3-1.183,1.451,1.451,0,0,0,1.225-1.434V7.556A1.455,1.455,0,0,0,20.055,6.1H19.037a.066.066,0,0,1-.066-.066V5.067A.066.066,0,0,1,19.037,5h1.018a.066.066,0,0,1,.066.066.694.694,0,1,0,1.387,0,1.455,1.455,0,0,0-1.269-1.44v-.24a.694.694,0,0,0-1.387,0v.24a1.455,1.455,0,0,0-1.269,1.44v.968A1.455,1.455,0,0,0,19.037,7.49h1.018a.066.066,0,0,1,.066.066V8.582a.066.066,0,0,1-.066.066H19.037a.066.066,0,0,1-.066-.066V8.488a.694.694,0,1,0-1.387,0v.094a1.48,1.48,0,0,0,.01.167H14.459a5.446,5.446,0,0,1,.484-4.817,5.537,5.537,0,0,1,.525-.7,5.436,5.436,0,0,1,9.515,3.595ZM4.108,12.988H1.387V4.835H4.108Zm0,0" stroke="#000" stroke-width="0.5"/>
    <path id="Path_152" data-name="Path 152" d="M128.352,177.078a.693.693,0,1,0-.086.875A.7.7,0,0,0,128.352,177.078Zm0,0" transform="translate(-118.142 -164.331)" stroke="#000" stroke-width="0.5"/>
  </g>
</svg>
