<svg xmlns="http://www.w3.org/2000/svg" width="35.98" height="36" viewBox="0 0 35.98 36">
  <g id="financial_Sectors" data-name="financial Sectors" transform="translate(-0.145)">
    <path id="Path_125" data-name="Path 125" d="M213.16,287.025a1.135,1.135,0,0,1,1.133,1.133h2.1a3.235,3.235,0,0,0-2.182-3.055v-1.238h-2.1V285.1a3.23,3.23,0,0,0,1.048,6.285,1.133,1.133,0,1,1-1.133,1.133h-2.1a3.235,3.235,0,0,0,2.182,3.055v1.249h2.1v-1.249a3.23,3.23,0,0,0-1.049-6.285,1.133,1.133,0,0,1,0-2.267Z" transform="translate(-195.026 -263.832)" fill="#2c2c2c"/>
    <path id="Path_126" data-name="Path 126" d="M36.125,21.17H31.891V0H23.432V4.234H17.081V8.468H10.73V12.7H4.379V21.17H.145v2.108H9.138a9.542,9.542,0,1,0,17.994,0h8.993ZM19.189,6.342h4.243V18.524a9.482,9.482,0,0,0-4.243-1.551Zm-6.351,4.234h4.243v6.4a9.482,9.482,0,0,0-4.243,1.551ZM6.487,21.17V14.81H10.73v5.637q-.283.348-.534.723ZM18.135,33.892a7.434,7.434,0,1,1,7.434-7.434A7.443,7.443,0,0,1,18.135,33.892ZM29.783,21.17H26.074q-.25-.374-.534-.723V2.108h4.243Z" transform="translate(0)" fill="#2c2c2c"/>
  </g>
</svg>
