<svg id="financial_transformation" data-name="financial transformation" xmlns="http://www.w3.org/2000/svg" width="36" height="36" viewBox="0 0 36 36">
  <g id="Group_876" data-name="Group 876" transform="translate(8.438 16.945)">
    <g id="Group_875" data-name="Group 875">
      <path id="Path_208" data-name="Path 208" d="M123.164,247.4a1.12,1.12,0,0,1-1.055-1.125,1.058,1.058,0,0,1,.694-.992c.541-.2,1.172.07,1.73.734a1.055,1.055,0,0,0,1.615-1.357,4.386,4.386,0,0,0-1.93-1.38v-1.225a1.055,1.055,0,0,0-2.109,0v1.236l-.028.01A3.174,3.174,0,0,0,120,246.273a3.253,3.253,0,0,0,.91,2.256,3.1,3.1,0,0,0,2.254.979,1.055,1.055,0,0,1,.411,2.027,1.443,1.443,0,0,1-1.551-.468,1.055,1.055,0,1,0-1.468,1.515,4.141,4.141,0,0,0,1.553.971v1.229a1.055,1.055,0,0,0,2.109,0v-1.235a3.164,3.164,0,0,0-1.055-6.147Z" transform="translate(-120 -241)"/>
    </g>
  </g>
  <g id="Group_878" data-name="Group 878">
    <g id="Group_877" data-name="Group 877">
      <path id="Path_209" data-name="Path 209" d="M32.555,1.325A18.31,18.31,0,0,0,25.383,0c-5.49,0-10.547,2.016-10.547,5.273v7.913a11.634,11.634,0,1,0,2.746,21.165A17.038,17.038,0,0,0,25.383,36a18.31,18.31,0,0,0,7.172-1.325C34.776,33.7,36,32.3,36,30.727V5.273C36,3.7,34.776,2.3,32.555,1.325ZM11.6,33.891A9.527,9.527,0,1,1,21.164,24.4,9.5,9.5,0,0,1,11.6,33.891Zm22.289-3.164c0,1.29-3.314,3.164-8.508,3.164a16.642,16.642,0,0,1-5.88-.975c.112-.1.222-.207.331-.314a11.682,11.682,0,0,0,2.283-3.174,21.469,21.469,0,0,0,3.267.245c2.773,0,6.213-.539,8.508-2.04Zm0-6.328c0,1.29-3.314,3.164-8.508,3.164a19.643,19.643,0,0,1-2.507-.158,11.505,11.505,0,0,0,.4-3.006,11.665,11.665,0,0,0-.066-1.232c.71.07,1.438.107,2.175.107,2.774,0,6.212-.539,8.508-2.04Zm0-6.4c0,1.29-3.314,3.164-8.508,3.164a19.613,19.613,0,0,1-2.621-.173,11.688,11.688,0,0,0-2.877-4.778,19.9,19.9,0,0,0,5.5.732c2.774,0,6.212-.539,8.508-2.04Zm0-6.328c0,1.29-3.314,3.164-8.508,3.164A15.952,15.952,0,0,1,19.1,13.691c-1.329-.59-2.154-1.364-2.154-2.019V8.522c2.283,1.5,5.693,2.025,8.438,2.025,2.774,0,6.212-.539,8.508-2.04ZM25.383,8.438c-5.152,0-8.437-1.846-8.437-3.164s3.295-3.164,8.438-3.164c5.193,0,8.508,1.874,8.508,3.164S30.576,8.438,25.383,8.438Z"/>
    </g>
  </g>
</svg>
