<svg xmlns="http://www.w3.org/2000/svg" width="36.18" height="36.642" viewBox="0 0 36.18 36.642">
  <g id="fintech" transform="translate(-1.9 -1.159)">
    <path id="Path_233" data-name="Path 233" d="M36.181,5.8a1.767,1.767,0,0,0-1.8-1.8h-1.2V5.2h1.2a.567.567,0,0,1,.6.6V29.186H17.592v1.2h17.57l1.319,3.6H3.439l1.319-3.6H6.8v-1.2H5V5.8a.567.567,0,0,1,.6-.6H22.389V4H5.6A1.767,1.767,0,0,0,3.8,5.8V29.666L2,34.463v2.519a1.767,1.767,0,0,0,1.8,1.8H36.181a1.767,1.767,0,0,0,1.8-1.8V34.463l-1.8-4.8Zm0,31.783H3.8a.567.567,0,0,1-.6-.6v-1.8H36.781v1.8A.567.567,0,0,1,36.181,37.582Z" transform="translate(0 -1.081)" fill="#fff" stroke="#fff" stroke-width="0.2"/>
    <path id="Path_234" data-name="Path 234" d="M30.4,22a2.4,2.4,0,1,0,2.4,2.4A2.406,2.406,0,0,0,30.4,22Zm0,3.6a1.2,1.2,0,1,1,1.2-1.2A1.2,1.2,0,0,1,30.4,25.6Z" transform="translate(-10.408 -8.287)" fill="#fff" stroke="#fff" stroke-width="0.2"/>
    <path id="Path_235" data-name="Path 235" d="M38,25h3.6v1.2H38Z" transform="translate(-14.412 -9.488)" fill="#fff" stroke="#fff" stroke-width="0.2"/>
    <path id="Path_236" data-name="Path 236" d="M32.588,8.916H11V25.707a3.609,3.609,0,0,0,3.6,3.6h3.358l-.78.78.84.84,2.219-2.219-2.219-2.219-.84.84.78.78H14.6a2.4,2.4,0,1,1,0-4.8H36.186V6.517a3.609,3.609,0,0,0-3.6-3.6H29.23l.78-.78-.84-.84L26.951,3.519,29.17,5.738l.84-.84-.78-.78h3.358a2.4,2.4,0,0,1,0,4.8Zm2.4,13.193H14.6a3.509,3.509,0,0,0-2.4.9V10.115H32.588a3.509,3.509,0,0,0,2.4-.9Z" transform="translate(-3.603)" fill="#fff" stroke="#fff" stroke-width="0.2"/>
    <path id="Path_237" data-name="Path 237" d="M33.59,19.2V18H16.8v1.2a.567.567,0,0,1-.6.6H15v6h1.2a.567.567,0,0,1,.6.6v1.2H33.59V26.4a.567.567,0,0,1,.6-.6h1.2v-6h-1.2A.567.567,0,0,1,33.59,19.2Zm.6,5.4a1.767,1.767,0,0,0-1.8,1.8H18a1.767,1.767,0,0,0-1.8-1.8V21A1.767,1.767,0,0,0,18,19.2H32.391a1.767,1.767,0,0,0,1.8,1.8Z" transform="translate(-5.204 -6.685)" fill="#fff" stroke="#fff" stroke-width="0.2"/>
    <path id="Path_238" data-name="Path 238" d="M20,25h3.6v1.2H20Z" transform="translate(-7.206 -9.488)" fill="#fff" stroke="#fff" stroke-width="0.2"/>
  </g>
</svg>
