<svg xmlns="http://www.w3.org/2000/svg" width="36" height="23.644" viewBox="0 0 36 23.644">
  <g id="gaming" transform="translate(0 -55.109)">
    <g id="Group_920" data-name="Group 920" transform="translate(0 55.109)">
      <g id="Group_919" data-name="Group 919" transform="translate(0 0)">
        <path id="Path_231" data-name="Path 231" d="M35.981,71.461a33.6,33.6,0,0,0-.986-6.5,24.954,24.954,0,0,0-2.018-5.47C29.838,53.974,26.43,54.826,22.35,55.9a29.208,29.208,0,0,1-4.125.807h-.448a29.208,29.208,0,0,1-4.125-.807c-4.08-1.031-7.488-1.928-10.627,3.632A22.859,22.859,0,0,0,1.006,65a33.6,33.6,0,0,0-.986,6.5,12.218,12.218,0,0,0,.628,5.112A3.4,3.4,0,0,0,2.8,78.636a4.384,4.384,0,0,0,2.87-.314,21.075,21.075,0,0,0,5.739-4.08C12.8,72.9,15.4,72.224,18,72.224s5.2.673,6.591,2.018a21.075,21.075,0,0,0,5.739,4.08,4.691,4.691,0,0,0,2.87.314,3.351,3.351,0,0,0,2.152-2.063A11.989,11.989,0,0,0,35.981,71.461Zm-2.152,4.484a1.778,1.778,0,0,1-1.076,1.121,3.1,3.1,0,0,1-1.838-.224,18.287,18.287,0,0,1-5.2-3.722c-1.7-1.7-4.708-2.556-7.712-2.556s-6.008.852-7.757,2.466a18.631,18.631,0,0,1-5.2,3.722,2.782,2.782,0,0,1-1.838.224,1.778,1.778,0,0,1-1.076-1.121,10.6,10.6,0,0,1-.448-4.3,30.929,30.929,0,0,1,.942-6.188A21.4,21.4,0,0,1,4.5,60.3c2.466-4.439,5.336-3.722,8.744-2.825a26.3,26.3,0,0,0,4.394.852h.673a25.978,25.978,0,0,0,4.439-.852c3.408-.852,6.278-1.614,8.744,2.825a20.676,20.676,0,0,1,1.883,5.067,33.939,33.939,0,0,1,.942,6.188A10.376,10.376,0,0,1,33.829,75.945Z" transform="translate(0 -55.109)"/>
      </g>
    </g>
    <g id="Group_922" data-name="Group 922" transform="translate(4.636 59.581)">
      <g id="Group_921" data-name="Group 921" transform="translate(0 0)">
        <path id="Path_232" data-name="Path 232" d="M50.606,98.118a2.723,2.723,0,0,0-1.613-.762,2.55,2.55,0,0,0-.717-1.569l-.045-.045a2.538,2.538,0,0,0-1.838-.762,2.646,2.646,0,0,0-1.838.762,2.605,2.605,0,0,0-.762,1.613,2.67,2.67,0,0,0-1.613.717l-.045.045a2.538,2.538,0,0,0-.762,1.838,2.646,2.646,0,0,0,.762,1.838,2.5,2.5,0,0,0,1.658.762,2.391,2.391,0,0,0,.762,1.613,2.538,2.538,0,0,0,1.838.762,2.646,2.646,0,0,0,1.838-.762,2.723,2.723,0,0,0,.762-1.613,2.391,2.391,0,0,0,1.613-.762,2.538,2.538,0,0,0,.762-1.838A2.646,2.646,0,0,0,50.606,98.118Zm-1.12,2.51a.912.912,0,0,1-.672.269h-.627a.851.851,0,0,0-.852.852v.583a.941.941,0,1,1-1.882,0V101.7a.851.851,0,0,0-.852-.852h-.627a.919.919,0,0,1-.672-1.569l.045-.045a1.071,1.071,0,0,1,.627-.224H44.6a.851.851,0,0,0,.852-.852v-.627a.951.951,0,0,1,1.613-.672l.045.045a1.071,1.071,0,0,1,.224.627v.627a.851.851,0,0,0,.852.852h.627a.951.951,0,0,1,.672,1.613Z" transform="translate(-41.373 -94.981)"/>
      </g>
    </g>
    <g id="Group_924" data-name="Group 924" transform="translate(24.234 59.804)">
      <g id="Group_923" data-name="Group 923" transform="translate(0 0)">
        <circle id="Ellipse_9" data-name="Ellipse 9" cx="1.569" cy="1.569" r="1.569"/>
      </g>
    </g>
    <g id="Group_926" data-name="Group 926" transform="translate(24.234 66.171)">
      <g id="Group_925" data-name="Group 925" transform="translate(0 0)">
        <circle id="Ellipse_10" data-name="Ellipse 10" cx="1.569" cy="1.569" r="1.569"/>
      </g>
    </g>
    <g id="Group_928" data-name="Group 928" transform="translate(21.05 62.987)">
      <g id="Group_927" data-name="Group 927" transform="translate(0 0)">
        <circle id="Ellipse_11" data-name="Ellipse 11" cx="1.569" cy="1.569" r="1.569"/>
      </g>
    </g>
    <g id="Group_930" data-name="Group 930" transform="translate(27.418 62.987)">
      <g id="Group_929" data-name="Group 929" transform="translate(0 0)">
        <circle id="Ellipse_12" data-name="Ellipse 12" cx="1.569" cy="1.569" r="1.569"/>
      </g>
    </g>
  </g>
</svg>
