<svg id="industry" xmlns="http://www.w3.org/2000/svg" width="36" height="36" viewBox="0 0 36 36">
  <path id="Path_168" data-name="Path 168" d="M36,140.18a3.168,3.168,0,0,0-3.164-3.164H27.492v-5.344a1.055,1.055,0,0,0-1.055-1.055H21.164v-3.164a1.055,1.055,0,0,0-1.64-.878L14.836,129.7v-2.248a1.055,1.055,0,0,0-1.64-.878L8.508,129.7v-8.646A1.055,1.055,0,0,0,7.453,120H3.234a1.055,1.055,0,0,0-1.055,1.055v8.612L.474,130.791a1.055,1.055,0,0,0-.474.881v14.836a1.055,1.055,0,0,0,1.055,1.055H26.438a1.055,1.055,0,0,0,1.055-1.055v-3.164h4.289v3.164a1.055,1.055,0,0,0,1.055,1.055h2.109a1.055,1.055,0,0,0,0-2.109H33.891v-2.291A3.169,3.169,0,0,0,36,140.18ZM4.289,122.109H6.4v4.776l-2.109,1.391Zm14.766,23.344H16.945v-6.328h2.109Zm6.328,0H21.164V138.07a1.055,1.055,0,0,0-1.055-1.055H15.891a1.055,1.055,0,0,0-1.055,1.055v7.383H2.109V132.24c.048-.03,4.282-2.823,4.289-2.828v2.26a1.055,1.055,0,0,0,1.64.878l4.688-3.126v2.248a1.055,1.055,0,0,0,1.64.878l4.688-3.126v2.248a1.055,1.055,0,0,0,1.055,1.055h5.273Zm2.109-6.328h5.344a1.055,1.055,0,0,1,0,2.109H27.492Z" transform="translate(0 -111.562)"/>
  <path id="Path_169" data-name="Path 169" d="M68.383,362H62.055A1.055,1.055,0,0,0,61,363.055v4.219a1.055,1.055,0,0,0,1.055,1.055h6.328a1.055,1.055,0,0,0,1.055-1.055v-4.219A1.055,1.055,0,0,0,68.383,362Zm-1.055,4.219H63.109v-2.109h4.219Z" transform="translate(-56.711 -336.547)"/>
  <path id="Path_170" data-name="Path 170" d="M63.109,5.273a1.056,1.056,0,0,1,1.055-1.055h4.219a3.168,3.168,0,0,0,3.164-3.164,1.055,1.055,0,0,0-2.109,0,1.056,1.056,0,0,1-1.055,1.055H64.164A3.168,3.168,0,0,0,61,5.273a1.055,1.055,0,0,0,2.109,0Z" transform="translate(-56.711)"/>
</svg>
