<svg xmlns="http://www.w3.org/2000/svg" width="32.264" height="36" viewBox="0 0 32.264 36">
  <g id="legal_and_regulatory_compliance" data-name="legal and regulatory compliance" transform="translate(-26.57)">
    <g id="Group_828" data-name="Group 828" transform="translate(26.57)">
      <g id="Group_827" data-name="Group 827">
        <path id="Path_135" data-name="Path 135" d="M124.1,201.434A1.434,1.434,0,0,0,122.664,200H107.893a1.434,1.434,0,1,0,0,2.868h14.771A1.434,1.434,0,0,0,124.1,201.434Z" transform="translate(-100.97 -185.961)"/>
        <path id="Path_136" data-name="Path 136" d="M107.893,280a1.434,1.434,0,0,0,0,2.868h8.971a1.434,1.434,0,0,0,0-2.868Z" transform="translate(-100.904 -260.346)"/>
        <path id="Path_137" data-name="Path 137" d="M36.871,33.188H32.18a2.812,2.812,0,0,1-2.805-2.812V5.625A2.812,2.812,0,0,1,32.18,2.813H49.425A2.812,2.812,0,0,1,52.23,5.625v8.648a1.4,1.4,0,1,0,2.805,0V5.625A5.624,5.624,0,0,0,49.425,0H32.18a5.624,5.624,0,0,0-5.61,5.625v24.75A5.624,5.624,0,0,0,32.18,36h4.691a1.406,1.406,0,0,0,0-2.812Z" transform="translate(-26.57)"/>
        <path id="Path_138" data-name="Path 138" d="M259.549,273.282a4.307,4.307,0,0,0-6.083,0l-7.873,7.856a1.434,1.434,0,0,0-.359.6l-1.715,5.645a1.434,1.434,0,0,0,1.755,1.8l5.788-1.6a1.433,1.433,0,0,0,.63-.367l7.857-7.842A4.307,4.307,0,0,0,259.549,273.282Zm-9.616,11.63-2.912.807.852-2.806,5.313-5.3,2.029,2.029Zm7.589-7.575-.278.277-2.028-2.028.277-.276a1.434,1.434,0,0,1,2.029,2.027Z" transform="translate(-228.544 -253.232)"/>
        <path id="Path_139" data-name="Path 139" d="M122.664,120H107.893a1.434,1.434,0,1,0,0,2.868h14.771a1.434,1.434,0,1,0,0-2.868Z" transform="translate(-100.97 -111.577)"/>
      </g>
    </g>
  </g>
</svg>
