<svg xmlns="http://www.w3.org/2000/svg" width="31.917" height="35.923" viewBox="0 0 31.917 35.923">
  <g id="Life_Sciences" data-name="Life Sciences" transform="translate(-26.199)">
    <path id="Path_223" data-name="Path 223" d="M55.376,19.888a26.442,26.442,0,0,0-1.858-1.927,26.443,26.443,0,0,0,1.858-1.927,12.865,12.865,0,0,0,2.381-3.715,3.8,3.8,0,0,0-.044-3.338,3.8,3.8,0,0,0-2.869-1.707,12.865,12.865,0,0,0-4.408.2,26.445,26.445,0,0,0-2.6.646c-.2-.831-.419-1.619-.666-2.356a2.008,2.008,0,0,0-1.6-3.451,8.183,8.183,0,0,0-.5-.685A3.8,3.8,0,0,0,42.158,0a3.8,3.8,0,0,0-2.913,1.631,12.867,12.867,0,0,0-2.027,3.92,26.445,26.445,0,0,0-.74,2.573,26.423,26.423,0,0,0-2.6-.646,12.865,12.865,0,0,0-4.408-.2A3.8,3.8,0,0,0,26.6,8.981a3.8,3.8,0,0,0-.044,3.338,12.865,12.865,0,0,0,2.381,3.715A26.44,26.44,0,0,0,30.8,17.961q-.614.578-1.161,1.157a2.008,2.008,0,0,0-2.316,2.953,9.272,9.272,0,0,0-.762,1.533,3.8,3.8,0,0,0,.044,3.338,3.8,3.8,0,0,0,2.869,1.707,8.927,8.927,0,0,0,1.447.109,15.86,15.86,0,0,0,2.961-.314,26.445,26.445,0,0,0,2.6-.646,26.441,26.441,0,0,0,.74,2.573,12.867,12.867,0,0,0,2.027,3.92,3.8,3.8,0,0,0,2.913,1.631,3.8,3.8,0,0,0,2.913-1.631,12.868,12.868,0,0,0,2.027-3.92,26.441,26.441,0,0,0,.74-2.573c.791.237,1.56.434,2.3.586a2.008,2.008,0,0,0,3.8.358,8.286,8.286,0,0,0,.912-.094,3.8,3.8,0,0,0,2.869-1.707,3.8,3.8,0,0,0,.044-3.338A12.864,12.864,0,0,0,55.376,19.888ZM50.724,8.979c2.944-.565,5.062-.279,5.665.766s-.208,3.022-2.169,5.289a25.169,25.169,0,0,1-1.842,1.9,41.886,41.886,0,0,0-3.633-2.777,41.9,41.9,0,0,0-.588-4.535A25.164,25.164,0,0,1,50.724,8.979ZM44.758,22.465c-.866.5-1.736.968-2.6,1.4-.864-.432-1.734-.9-2.6-1.4s-1.706-1.02-2.512-1.552c-.058-.964-.088-1.951-.088-2.952s.03-1.987.088-2.952q1.209-.8,2.512-1.552c.866-.5,1.736-.968,2.6-1.4.864.432,1.734.9,2.6,1.4s1.706,1.02,2.512,1.552c.058.964.088,1.951.088,2.952s-.03,1.987-.088,2.952Q46.061,21.712,44.758,22.465Zm2.355.367c-.107,1.033-.248,2.03-.422,2.982-.911-.325-1.846-.7-2.793-1.126q.813-.431,1.625-.9T47.113,22.832Zm-6.7,1.856c-.948.424-1.882.8-2.793,1.126-.174-.952-.315-1.949-.422-2.982q.779.489,1.591.958T40.418,24.688Zm-4.955-4.87c-.841-.609-1.634-1.23-2.371-1.856.737-.626,1.531-1.247,2.371-1.856q-.034.919-.034,1.856T35.462,19.818Zm1.74-6.727c.107-1.032.248-2.03.422-2.982.911.325,1.846.7,2.793,1.126q-.813.431-1.625.9T37.2,13.091Zm6.7-1.856c.948-.424,1.882-.8,2.793-1.126.174.952.315,1.949.422,2.982q-.779-.489-1.591-.958T43.9,11.235Zm4.955,4.87c.841.609,1.634,1.23,2.371,1.856-.737.626-1.531,1.247-2.371,1.856q.034-.919.034-1.856T48.853,16.105ZM38.662,6.052c.982-2.832,2.289-4.523,3.5-4.523.682,0,1.4.541,2.067,1.524a2.007,2.007,0,0,0,1.52,3.269c.236.711.448,1.473.635,2.277a41.9,41.9,0,0,0-4.222,1.758A41.9,41.9,0,0,0,37.936,8.6,25.184,25.184,0,0,1,38.662,6.052ZM30.1,15.034c-1.962-2.267-2.772-4.244-2.169-5.289.4-.692,1.462-1.051,2.988-1.051a14.409,14.409,0,0,1,2.676.285,25.183,25.183,0,0,1,2.569.644,41.9,41.9,0,0,0-.588,4.535,41.9,41.9,0,0,0-3.633,2.777A25.168,25.168,0,0,1,30.1,15.034Zm3.5,11.909c-2.944.565-5.061.279-5.665-.766-.407-.7-.169-1.834.63-3.19A2.008,2.008,0,0,0,30.817,20.1q.527-.554,1.121-1.109a41.911,41.911,0,0,0,3.633,2.777A41.894,41.894,0,0,0,36.16,26.3,25.139,25.139,0,0,1,33.592,26.943Zm12.062,2.927c-.982,2.832-2.289,4.523-3.5,4.523s-2.513-1.691-3.5-4.523a25.178,25.178,0,0,1-.726-2.547,41.9,41.9,0,0,0,4.222-1.758,41.9,41.9,0,0,0,4.222,1.758A25.179,25.179,0,0,1,45.653,29.871Zm10.735-3.693a2.887,2.887,0,0,1-2.421,1.032,2.008,2.008,0,0,0-3.58-.334c-.717-.15-1.463-.343-2.232-.577a41.9,41.9,0,0,0,.588-4.535,41.869,41.869,0,0,0,3.633-2.777,25.167,25.167,0,0,1,1.842,1.9C56.181,23.156,56.992,25.133,56.389,26.178Z"/>
    <path id="Path_224" data-name="Path 224" d="M196.606,193.433a3.173,3.173,0,1,0,3.173,3.173A3.176,3.176,0,0,0,196.606,193.433Zm0,4.816a1.644,1.644,0,1,1,1.644-1.644A1.645,1.645,0,0,1,196.606,198.249Z" transform="translate(-154.448 -178.644)"/>
  </g>
</svg>
