<svg xmlns="http://www.w3.org/2000/svg" width="36.212" height="26.322" viewBox="0 0 36.212 26.322">
  <path id="lifestyle" d="M33.265,86.031h-.8v-.878a3.014,3.014,0,0,0-.546-1.733,10.1,10.1,0,0,0,.8-4.565,9.609,9.609,0,0,0-2.423-6A7.414,7.414,0,0,0,24.792,70.3a10.8,10.8,0,0,0-6.774,2.891,10.427,10.427,0,0,0-6.8-2.891,7.414,7.414,0,0,0-5.506,2.553,9.609,9.609,0,0,0-2.423,6,10.107,10.107,0,0,0,.8,4.565,3.014,3.014,0,0,0-.545,1.732v.878h-.8a2.756,2.756,0,0,0,0,5.512h.8v.878a3.011,3.011,0,0,0,4.94,2.326A3.013,3.013,0,0,0,14.2,93.4v-.166c1.947,1.388,3.409,2.374,3.426,2.386a.7.7,0,0,0,.786,0c.017-.011,1.466-.989,3.4-2.368V93.4a3.013,3.013,0,0,0,5.714,1.347,3.011,3.011,0,0,0,4.94-2.326v-.878h.8a2.756,2.756,0,0,0,0-5.512ZM4.7,78.923c.19-3.977,3.117-7.213,6.524-7.213a9.44,9.44,0,0,1,6.26,2.932.7.7,0,0,0,1.037.016c.028-.029,2.831-2.948,6.274-2.948,3.407,0,6.334,3.236,6.524,7.213a8.714,8.714,0,0,1-.524,3.522,3,3,0,0,0-3.266.382,3.013,3.013,0,0,0-5.714,1.347v1.857H14.2V84.174a3.013,3.013,0,0,0-5.714-1.347,3,3,0,0,0-3.266-.382A8.718,8.718,0,0,1,4.7,78.923Zm9.5,8.515h7.612v2.7H14.2Zm-11.453,2.7a1.349,1.349,0,0,1,0-2.7h.8v2.7h-.8Zm3.814,3.9a1.615,1.615,0,0,1-1.608-1.618V85.153a1.608,1.608,0,1,1,3.217,0v7.268A1.615,1.615,0,0,1,6.561,94.04Zm6.232-.64a1.608,1.608,0,1,1-3.217,0V84.175a1.608,1.608,0,1,1,3.217,0Zm5.225.786c-.662-.452-2.091-1.437-3.763-2.643H21.78c-1.671,1.206-3.1,2.191-3.762,2.643Zm8.417-.786a1.608,1.608,0,1,1-3.217,0V84.175a1.608,1.608,0,1,1,3.217,0Zm4.624-.979a1.608,1.608,0,1,1-3.217,0V85.153a1.608,1.608,0,1,1,3.217,0Zm2.206-2.285h-.8v-2.7h.8a1.349,1.349,0,0,1,0,2.7Z" transform="translate(0.1 -70.203)" stroke="#000" stroke-width="0.2"/>
</svg>
