<svg id="Manual_sop_formulation" data-name="Manual sop formulation" xmlns="http://www.w3.org/2000/svg" width="36" height="36" viewBox="0 0 36 36">
  <g id="Group_849" data-name="Group 849">
    <g id="Group_848" data-name="Group 848">
      <path id="Path_177" data-name="Path 177" d="M33.891,23.386V3.164A3.168,3.168,0,0,0,30.727,0H7.453A3.168,3.168,0,0,0,4.289,3.164V4.289H3.164a3.164,3.164,0,1,0,0,6.328H4.289v4.219H3.164a3.164,3.164,0,1,0,0,6.328H4.289v4.219H3.164a3.164,3.164,0,1,0,0,6.328H4.289v1.055a3.253,3.253,0,0,0,.91,2.256A3.1,3.1,0,0,0,7.453,36H28.617a7.429,7.429,0,0,0,5.273-12.614ZM3.164,8.508a1.055,1.055,0,1,1,0-2.109h2.18a1.055,1.055,0,1,1,0,2.109Zm0,10.547a1.055,1.055,0,0,1,0-2.109h2.18a1.055,1.055,0,0,1,0,2.109ZM5.344,29.6H3.164a1.055,1.055,0,0,1,0-2.109h2.18a1.055,1.055,0,1,1,0,2.109Zm2.109,4.289A1.12,1.12,0,0,1,6.4,32.766V31.53a3.163,3.163,0,0,0,0-5.965V20.983a3.163,3.163,0,0,0,0-5.965V10.436a3.163,3.163,0,0,0,0-5.965V3.164A1.056,1.056,0,0,1,7.453,2.109H30.727a1.056,1.056,0,0,1,1.055,1.055V21.877a7.381,7.381,0,0,0-10.547,6.669,7.466,7.466,0,0,0,2.242,5.344Zm21.164,0a5.309,5.309,0,1,1,5.273-5.344A5.315,5.315,0,0,1,28.617,33.891Z"/>
    </g>
  </g>
  <g id="Group_851" data-name="Group 851" transform="translate(21.171 8.503)">
    <g id="Group_850" data-name="Group 850">
      <path id="Path_178" data-name="Path 178" d="M309.455,121h-6.39a1.065,1.065,0,1,0,0,2.13h6.39a1.065,1.065,0,0,0,0-2.13Z" transform="translate(-302 -121)"/>
    </g>
  </g>
  <g id="Group_853" data-name="Group 853" transform="translate(21.171 16.935)">
    <g id="Group_852" data-name="Group 852">
      <path id="Path_179" data-name="Path 179" d="M309.455,241h-6.39a1.065,1.065,0,1,0,0,2.13h6.39a1.065,1.065,0,0,0,0-2.13Z" transform="translate(-302 -241)"/>
    </g>
  </g>
  <g id="Group_855" data-name="Group 855" transform="translate(27.481 25.35)">
    <g id="Group_854" data-name="Group 854">
      <path id="Path_180" data-name="Path 180" d="M395.195,363.13H394.13v-1.065a1.065,1.065,0,0,0-2.13,0v2.13a1.065,1.065,0,0,0,1.065,1.065h2.13a1.065,1.065,0,0,0,0-2.13Z" transform="translate(-392 -361)"/>
    </g>
  </g>
  <g id="Group_857" data-name="Group 857" transform="translate(10.289 6.385)">
    <g id="Group_856" data-name="Group 856">
      <path id="Path_181" data-name="Path 181" d="M155.289,91.312a1.065,1.065,0,0,0-1.506,0l-3.507,3.507L148.6,93.142a1.065,1.065,0,1,0-1.506,1.506l2.429,2.429a1.065,1.065,0,0,0,1.506,0l4.26-4.26A1.065,1.065,0,0,0,155.289,91.312Z" transform="translate(-146.783 -91)"/>
    </g>
  </g>
  <g id="Group_859" data-name="Group 859" transform="translate(10.289 14.805)">
    <g id="Group_858" data-name="Group 858">
      <path id="Path_182" data-name="Path 182" d="M155.289,211.312a1.065,1.065,0,0,0-1.506,0l-3.507,3.507-1.676-1.676a1.065,1.065,0,1,0-1.506,1.506l2.429,2.429a1.065,1.065,0,0,0,1.506,0l4.26-4.26A1.065,1.065,0,0,0,155.289,211.312Z" transform="translate(-146.783 -211)"/>
    </g>
  </g>
  <g id="Group_861" data-name="Group 861" transform="translate(10.289 23.225)">
    <g id="Group_860" data-name="Group 860">
      <path id="Path_183" data-name="Path 183" d="M155.289,331.312a1.065,1.065,0,0,0-1.506,0l-3.507,3.507-1.676-1.676a1.065,1.065,0,1,0-1.506,1.506l2.429,2.429a1.065,1.065,0,0,0,1.506,0l4.26-4.26A1.065,1.065,0,0,0,155.289,331.312Z" transform="translate(-146.783 -331)"/>
    </g>
  </g>
</svg>
