<svg xmlns="http://www.w3.org/2000/svg" width="31.63" height="35.964" viewBox="0 0 31.63 35.964">
  <g id="megaphone" transform="translate(-30.849)">
    <g id="Group_932" data-name="Group 932" transform="translate(30.849 1.341)">
      <g id="Group_931" data-name="Group 931" transform="translate(0)">
        <path id="Path_240" data-name="Path 240" d="M60.079,31.939,48.162,20.022a3.16,3.16,0,0,0-4.854,4l-.017.083a22.049,22.049,0,0,1-6.049,11.3l-5.466,5.466a3.158,3.158,0,0,0,0,4.469l2.979,2.979a3.158,3.158,0,0,0,4.469,0l.745-.745,5.214,5.214a3.16,3.16,0,0,0,4.469-4.469L47.417,46.09l.745-.745a3.158,3.158,0,0,0,0-4.469l-.506-.506a22.052,22.052,0,0,1,8.338-3.561l.084-.017a3.164,3.164,0,0,0,4-.385h0A3.164,3.164,0,0,0,60.079,31.939Zm-22.345,14.9a1.053,1.053,0,0,1-1.49,0l-2.979-2.979a1.053,1.053,0,0,1,0-1.49l5.214-5.214,4.469,4.469Zm10.427,2.979a1.053,1.053,0,0,1-1.49,1.49L41.458,46.09l1.49-1.49Zm-3.724-6.7c.317-.317.791-.8,1.539-1.441l.7.7a1.053,1.053,0,0,1,0,1.49l-.745.745Zm.045-2.934-4.559-4.559a24.122,24.122,0,0,0,5.128-9.768l9.2,9.2A24.12,24.12,0,0,0,44.482,40.177Zm14.107-5.258a1.053,1.053,0,0,1-1.49,0L45.182,23a1.053,1.053,0,1,1,1.49-1.49L58.589,33.428A1.055,1.055,0,0,1,58.589,34.918Z" transform="translate(-30.849 -19.098)"/>
      </g>
    </g>
    <g id="Group_934" data-name="Group 934" transform="translate(35.936 22.812)">
      <g id="Group_933" data-name="Group 933" transform="translate(0)">
        <path id="Path_241" data-name="Path 241" d="M106.554,325.07a1.053,1.053,0,0,0-1.49,0l-1.49,1.49a1.053,1.053,0,0,0,1.49,1.49l1.49-1.49A1.053,1.053,0,0,0,106.554,325.07Z" transform="translate(-103.266 -324.762)"/>
      </g>
    </g>
    <g id="Group_936" data-name="Group 936" transform="translate(51.946)">
      <g id="Group_935" data-name="Group 935" transform="translate(0)">
        <path id="Path_242" data-name="Path 242" d="M332.247,0a1.053,1.053,0,0,0-1.053,1.053V3.16a1.053,1.053,0,1,0,2.107,0V1.053A1.053,1.053,0,0,0,332.247,0Z" transform="translate(-331.194)"/>
      </g>
    </g>
    <g id="Group_938" data-name="Group 938" transform="translate(58.266 8.427)">
      <g id="Group_937" data-name="Group 937" transform="translate(0)">
        <path id="Path_243" data-name="Path 243" d="M424.329,119.966h-2.107a1.053,1.053,0,0,0,0,2.107h2.107a1.053,1.053,0,0,0,0-2.107Z" transform="translate(-421.169 -119.966)"/>
      </g>
    </g>
    <g id="Group_940" data-name="Group 940" transform="translate(56.159 2.107)">
      <g id="Group_939" data-name="Group 939">
        <path id="Path_244" data-name="Path 244" d="M395.083,30.3a1.053,1.053,0,0,0-1.49,0l-2.107,2.107a1.053,1.053,0,1,0,1.49,1.49l2.107-2.107A1.053,1.053,0,0,0,395.083,30.3Z" transform="translate(-391.178 -29.991)"/>
      </g>
    </g>
  </g>
</svg>
