<svg xmlns="http://www.w3.org/2000/svg" width="35.997" height="35.997" viewBox="0 0 35.997 35.997">
  <g id="operational_transformation" data-name="operational transformation" transform="translate(-0.5 0)">
    <path id="Path_210" data-name="Path 210" d="M35.529,13.938,31.2,13.5a13.446,13.446,0,0,0-.537-1.3l2.747-3.371a1.078,1.078,0,0,0-.074-1.443L29.113,3.159a1.078,1.078,0,0,0-1.443-.073L24.838,5.392a1.148,1.148,0,0,1-1.17.158l-.025-.01a1.146,1.146,0,0,1-.712-.937L22.56.969A1.078,1.078,0,0,0,21.487,0H15.511a1.078,1.078,0,0,0-1.072.969L14.067,4.6a1.147,1.147,0,0,1-.714.938l-.024.01a1.148,1.148,0,0,1-1.168-.158L9.328,3.085a1.078,1.078,0,0,0-1.443.074L3.659,7.385a1.078,1.078,0,0,0-.074,1.443L5.893,11.66a1.147,1.147,0,0,1,.16,1.167l-.012.028a1.145,1.145,0,0,1-.937.712l-3.634.371A1.078,1.078,0,0,0,.5,15.01v5.977a1.078,1.078,0,0,0,.968,1.072l3.635.371a1.146,1.146,0,0,1,.937.712l.011.026a1.148,1.148,0,0,1-.159,1.168L3.585,27.169a1.078,1.078,0,0,0,.074,1.443l4.226,4.226a1.078,1.078,0,0,0,1.443.074L12.16,30.6a1.148,1.148,0,0,1,1.168-.159l.027.011a1.146,1.146,0,0,1,.712.937l.371,3.634A1.078,1.078,0,0,0,15.511,36h5.977a1.078,1.078,0,0,0,1.072-.969l.371-3.634a1.146,1.146,0,0,1,.712-.938l.026-.01a1.147,1.147,0,0,1,1.168.158l2.832,2.308a1.078,1.078,0,0,0,1.443-.074l4.226-4.226a1.078,1.078,0,0,0,.073-1.443l-2.307-2.832a1.149,1.149,0,0,1-.158-1.17l.01-.025a1.146,1.146,0,0,1,.937-.712l3.634-.371a1.078,1.078,0,0,0,.968-1.072V15.01a1.077,1.077,0,0,0-.968-1.072Zm-1.188,6.076-2.666.272a3.3,3.3,0,0,0-2.711,2.033l-.009.023a3.3,3.3,0,0,0,.478,3.357l1.692,2.077-2.849,2.849L26.2,28.933a3.3,3.3,0,0,0-3.356-.479l-.024.01a3.3,3.3,0,0,0-2.034,2.711l-.272,2.666H16.484l-.272-2.666a3.3,3.3,0,0,0-2.031-2.71l-.024-.01a3.3,3.3,0,0,0-3.357.478L8.721,30.626,5.872,27.776,7.564,25.7a3.3,3.3,0,0,0,.479-3.356l-.01-.024a3.3,3.3,0,0,0-2.711-2.034l-2.666-.272V15.984l2.666-.272a3.3,3.3,0,0,0,2.711-2.033l.01-.023A3.3,3.3,0,0,0,7.564,10.3L5.872,8.221,8.721,5.372,10.8,7.064a3.3,3.3,0,0,0,3.357.478l.022-.009a3.3,3.3,0,0,0,2.034-2.711l.272-2.666h4.029l.272,2.666a3.3,3.3,0,0,0,2.033,2.711l.023.01A3.3,3.3,0,0,0,26.2,7.064l2.077-1.692,2.849,2.849-2.576,3.162a1.078,1.078,0,0,0-.11,1.2,11.253,11.253,0,0,1,.92,2.221,1.078,1.078,0,0,0,.925.768l4.056.414Zm0,0"/>
    <path id="Path_211" data-name="Path 211" d="M204.43,213.415l-3.115,3.115-1.423-1.423a1.078,1.078,0,0,0-1.525,1.525l2.186,2.186a1.078,1.078,0,0,0,1.525,0l3.877-3.877a1.078,1.078,0,0,0-1.524-1.525Zm0,0" transform="translate(-183.662 -198.116)"/>
    <path id="Path_212" data-name="Path 212" d="M142.609,133.5a8.613,8.613,0,1,0,8.613,8.613A8.623,8.623,0,0,0,142.609,133.5Zm0,15.071a6.457,6.457,0,1,1,6.457-6.457A6.465,6.465,0,0,1,142.609,148.567Zm0,0" transform="translate(-124.11 -124.11)"/>
  </g>
</svg>
