<svg xmlns="http://www.w3.org/2000/svg" width="31.126" height="36.5" viewBox="0 0 31.126 36.5">
  <g id="personal_finanance_management" data-name="personal finanance management" transform="translate(-35.821 0.25)">
    <g id="Group_845" data-name="Group 845" transform="translate(36.073)">
      <path id="Path_148" data-name="Path 148" d="M144.7,19.476h.238a6.827,6.827,0,0,0,5.235-2.283c2.859-3.249,2.384-8.817,2.332-9.349-.186-3.99-2.057-5.9-3.6-6.789a8.205,8.205,0,0,0-4-1.055h-.126a8.216,8.216,0,0,0-4,1.025c-1.559.891-3.46,2.8-3.646,6.819-.052.531-.527,6.1,2.332,9.349A6.8,6.8,0,0,0,144.7,19.476ZM139.125,8.032c0-.022.007-.045.007-.06.245-5.367,4.025-5.943,5.644-5.943h.089c2,.045,5.413.868,5.644,5.943a.147.147,0,0,0,.007.06c.007.052.527,5.142-1.834,7.822a4.849,4.849,0,0,1-3.824,1.6h-.074a4.833,4.833,0,0,1-3.817-1.6C138.613,13.189,139.118,8.076,139.125,8.032Z" transform="translate(-129.521)" stroke="#000" stroke-width="0.5"/>
      <path id="Path_149" data-name="Path 149" d="M66.692,268.552v-.022c0-.06-.007-.12-.007-.187-.045-1.482-.142-4.948-3.377-6.055l-.075-.022a21.474,21.474,0,0,1-6.188-2.829,1.009,1.009,0,0,0-1.156,1.654,23.178,23.178,0,0,0,6.806,3.121c1.737.621,1.931,2.485,1.983,4.192a1.508,1.508,0,0,0,.007.187,13.64,13.64,0,0,1-.157,2.313,27.349,27.349,0,0,1-13.143,3.069A27.507,27.507,0,0,1,38.237,270.9a12.913,12.913,0,0,1-.157-2.313c0-.06.007-.12.007-.187.052-1.707.246-3.57,1.983-4.192a23.4,23.4,0,0,0,6.806-3.121,1.009,1.009,0,0,0-1.156-1.654,21.239,21.239,0,0,1-6.188,2.829c-.03.007-.052.015-.075.022-3.235,1.115-3.332,4.581-3.377,6.055a1.51,1.51,0,0,1-.007.187v.022a11.523,11.523,0,0,0,.38,3.391.96.96,0,0,0,.388.472c.224.15,5.584,3.578,14.552,3.578s14.328-3.436,14.552-3.578a1,1,0,0,0,.388-.472A12.089,12.089,0,0,0,66.692,268.552Z" transform="translate(-36.073 -239.985)" stroke="#000" stroke-width="0.5"/>
    </g>
  </g>
</svg>
