<svg xmlns="http://www.w3.org/2000/svg" width="37.75" height="27.894" viewBox="0 0 37.75 27.894">
  <g id="procurement_consulting" data-name="procurement consulting" transform="translate(0.25 0.25)">
    <path id="Path_150" data-name="Path 150" d="M144.675,180.934h-4.251a.718.718,0,0,0-.718.718v.606h-4.47a.714.714,0,0,0-.274.055l-5.726,2.37a2.67,2.67,0,0,0-1.437,3.507l.019.046a2.753,2.753,0,0,0,.707.989,5.5,5.5,0,0,1-2.673.052l-5.621-1.287a2.6,2.6,0,0,0-1.223,5.063l6.707,1.7a6.918,6.918,0,0,0,4.252-.266l8.53-3.345h1.209v.378a.718.718,0,0,0,.718.718h4.251a.718.718,0,0,0,.718-.718v-9.871a.718.718,0,0,0-.718-.718Zm-6.314,8.776a.72.72,0,0,0-.262.049l-8.656,3.4a5.489,5.489,0,0,1-3.374.211l-6.707-1.7a1.169,1.169,0,0,1,.549-2.272l5.621,1.287a6.93,6.93,0,0,0,4.047-.288l1.631-.627.1-.037,3.678-1.416.077-.03a.718.718,0,1,0-.515-1.34l-.084.032-3.741,1.439a1.288,1.288,0,0,1-1.585-.733l-.02-.046a1.234,1.234,0,0,1,.664-1.621l5.594-2.315h4.327v6.016Zm5.6,1.1h-2.815V182.37h2.815Zm0,0" transform="translate(-108.143 -167.579)" stroke="#000" stroke-width="0.5"/>
    <path id="Path_151" data-name="Path 151" d="M6.99,12.687h-1.3V5.98h.2a3.374,3.374,0,0,0,1.533-.37.707.707,0,0,0,.065-.038L12.131,2.54a1.935,1.935,0,0,1,2,.186l.336.25-.06.087c-.089.129-.174.26-.254.395a6.964,6.964,0,0,0-.932,2.713,2.165,2.165,0,0,0,.236,4.317h5.314a1.1,1.1,0,0,1,.443,2.106.934.934,0,0,1-.127.047l-.011,0a1.1,1.1,0,0,1-.305.042H12.73a.718.718,0,1,0,0,1.435h6.038a2.548,2.548,0,0,0,.546-.059,7.166,7.166,0,0,0,.91.06A7.061,7.061,0,1,0,15.413,1.894l-.426-.318a3.379,3.379,0,0,0-3.543-.3.739.739,0,0,0-.064.037L6.733,4.348a1.932,1.932,0,0,1-.847.2h-.2v-.26a.718.718,0,0,0-.718-.718H.718A.718.718,0,0,0,0,4.285v9.871a.718.718,0,0,0,.718.718H4.969a.718.718,0,0,0,.718-.718v-.034h1.3a.718.718,0,0,0,0-1.436Zm5.735-4.363a.728.728,0,0,1,.461-.678,6.981,6.981,0,0,0,.261,1.407.73.73,0,0,1-.723-.729ZM25.85,7.062a5.635,5.635,0,0,1-4.766,5.56,2.555,2.555,0,0,0,.22-1.034,2.521,2.521,0,0,0-.315-1.224A1.5,1.5,0,0,0,22.255,8.88V7.818a1.506,1.506,0,0,0-1.5-1.5H19.7a.069.069,0,0,1-.069-.069v-1a.069.069,0,0,1,.069-.068h1.053a.069.069,0,0,1,.069.068.718.718,0,1,0,1.435,0,1.506,1.506,0,0,0-1.313-1.49V3.5a.718.718,0,0,0-1.436,0v.249a1.505,1.505,0,0,0-1.313,1.49v1a1.506,1.506,0,0,0,1.5,1.5h1.053a.069.069,0,0,1,.069.069V8.88a.068.068,0,0,1-.069.068H19.7a.069.069,0,0,1-.069-.068v-.1a.718.718,0,1,0-1.435,0v.1a1.531,1.531,0,0,0,.011.173H14.961a5.636,5.636,0,0,1,.5-4.984A5.73,5.73,0,0,1,16,3.342,5.625,5.625,0,0,1,25.85,7.062Zm-21.6,6.377H1.435V5H4.251Zm0,0" transform="translate(0)" stroke="#000" stroke-width="0.5"/>
    <path id="Path_152" data-name="Path 152" d="M128.4,177.088a.717.717,0,1,0-.089.906A.722.722,0,0,0,128.4,177.088Zm0,0" transform="translate(-117.831 -163.899)" stroke="#000" stroke-width="0.5"/>
  </g>
</svg>
