<svg xmlns="http://www.w3.org/2000/svg" width="34.27" height="36.36" viewBox="0 0 34.27 36.36">
  <g id="Real_estate" data-name="Real estate" transform="translate(-14.716)">
    <path id="Path_225" data-name="Path 225" d="M47.921,34.23h-2.81V1.065A1.065,1.065,0,0,0,44.045,0H19.657a1.065,1.065,0,0,0-1.065,1.065V34.23h-2.81a1.065,1.065,0,1,0,0,2.13h32.14a1.065,1.065,0,1,0,0-2.13Zm-19.7,0V26.968h7.262V34.23Zm9.393,0V25.9a1.065,1.065,0,0,0-1.065-1.065H27.155A1.065,1.065,0,0,0,26.089,25.9V34.23H20.722V2.13H42.98v32.1Z"/>
    <path id="Path_226" data-name="Path 226" d="M141.526,66.309h-5.22a1.065,1.065,0,0,0-1.065,1.065v5.22a1.065,1.065,0,0,0,1.065,1.065h5.22a1.065,1.065,0,0,0,1.065-1.065v-5.22A1.065,1.065,0,0,0,141.526,66.309Zm-1.065,5.22h-3.09v-3.09h3.09Z" transform="translate(-111.965 -61.6)"/>
    <path id="Path_227" data-name="Path 227" d="M279.538,66.309h-5.22a1.065,1.065,0,0,0-1.065,1.065v5.22a1.065,1.065,0,0,0,1.065,1.065h5.22a1.065,1.065,0,0,0,1.065-1.065v-5.22A1.065,1.065,0,0,0,279.538,66.309Zm-1.065,5.22h-3.09v-3.09h3.09Z" transform="translate(-240.176 -61.6)"/>
    <path id="Path_228" data-name="Path 228" d="M141.526,205.954h-5.22a1.065,1.065,0,0,0-1.065,1.065v5.22a1.065,1.065,0,0,0,1.065,1.065h5.22a1.065,1.065,0,0,0,1.065-1.065v-5.22A1.065,1.065,0,0,0,141.526,205.954Zm-1.065,5.22h-3.09v-3.09h3.09Z" transform="translate(-111.965 -191.328)"/>
    <path id="Path_229" data-name="Path 229" d="M279.538,205.954h-5.22a1.065,1.065,0,0,0-1.065,1.065v5.22a1.065,1.065,0,0,0,1.065,1.065h5.22a1.065,1.065,0,0,0,1.065-1.065v-5.22A1.065,1.065,0,0,0,279.538,205.954Zm-1.065,5.22h-3.09v-3.09h3.09Z" transform="translate(-240.176 -191.328)"/>
  </g>
</svg>
