<svg xmlns="http://www.w3.org/2000/svg" width="36" height="36" viewBox="0 0 36 36">
  <path id="restructing_and_privatization" data-name="restructing and privatization" d="M17.927,7.1a4.883,4.883,0,0,0-4.922,4.833v1.953a3.52,3.52,0,0,0-3.022,3.48v8.016a1.406,1.406,0,0,0,1.406,1.406H24.468a1.406,1.406,0,0,0,1.406-1.406V17.366a3.521,3.521,0,0,0-3.025-3.481V11.933A4.883,4.883,0,0,0,17.927,7.1Zm0,2.812a2.069,2.069,0,0,1,2.109,2.02V13.85H15.818V11.933a2.069,2.069,0,0,1,2.109-2.02Zm5.134,7.453v6.609H12.8V17.366a.7.7,0,0,1,.7-.7h8.859A.7.7,0,0,1,23.061,17.366Zm-3.727,2.953a1.406,1.406,0,1,1-1.406-1.406A1.406,1.406,0,0,1,19.335,20.319ZM36,18a17.93,17.93,0,0,1-3.05,9.993,1.406,1.406,0,1,1-2.338-1.563A15.086,15.086,0,1,0,25.855,31,1.406,1.406,0,1,1,27.312,33.4,18,18,0,1,1,36,18Zm0,0" transform="translate(0.001 0.002)"/>
</svg>
