<svg xmlns="http://www.w3.org/2000/svg" width="36.017" height="33.897" viewBox="0 0 36.017 33.897">
  <g id="Retail_and_Ecommerce" data-name="Retail and Ecommerce" transform="translate(0 -13.148)">
    <path id="Path_246" data-name="Path 246" d="M35.809,19.613a1.155,1.155,0,0,0-.9-.494l-22.342-.963a1.156,1.156,0,0,0-.1,2.309l20.829.9L29.2,34.142H10.978L7.685,16.213a1.155,1.155,0,0,0-.714-.867L1.578,13.228a1.156,1.156,0,0,0-.846,2.151l4.8,1.884L8.879,35.506a1.156,1.156,0,0,0,1.137.947h.556L9.3,39.978a.963.963,0,0,0,.906,1.289h.89a3.467,3.467,0,1,0,5.153,0H23.81a3.467,3.467,0,1,0,5.153,0h1.083a.963.963,0,1,0,0-1.926H11.578l1.04-2.889H30.046a1.155,1.155,0,0,0,1.1-.8l4.815-15.023A1.153,1.153,0,0,0,35.809,19.613ZM13.675,45.12a1.541,1.541,0,1,1,1.541-1.541A1.542,1.542,0,0,1,13.675,45.12Zm12.712,0a1.541,1.541,0,1,1,1.541-1.541A1.542,1.542,0,0,1,26.386,45.12Z"/>
  </g>
</svg>
