<svg xmlns="http://www.w3.org/2000/svg" width="16.261" height="15.849" viewBox="0 0 16.261 15.849">
  <g id="right_arrow" data-name="right arrow" transform="translate(-2)">
    <path id="Icon_awesome-arrow-right" data-name="Icon awesome-arrow-right" d="M6.914,3.709,7.719,2.9a.867.867,0,0,1,1.23,0l7.055,7.052a.867.867,0,0,1,0,1.23L8.95,18.24a.867.867,0,0,1-1.23,0l-.806-.806a.872.872,0,0,1,.015-1.245L11.3,12.023H.871A.869.869,0,0,1,0,11.152V9.991A.869.869,0,0,1,.871,9.12H11.3L6.928,4.954A.866.866,0,0,1,6.914,3.709Z" transform="translate(2 -2.647)" fill="#fff"/>
  </g>
</svg>
