<svg xmlns="http://www.w3.org/2000/svg" width="36" height="32.941" viewBox="0 0 36 32.941">
  <g id="risk_advisory_consulting" data-name="risk advisory &amp; consulting" transform="translate(-0.001 -15.344)">
    <g id="Group_846" data-name="Group 846" transform="translate(0.001 15.344)">
      <path id="Path_163" data-name="Path 163" d="M35.846,46.438,19.092,15.989a1.246,1.246,0,0,0-2.184,0L.155,46.438a1.246,1.246,0,0,0,1.092,1.847H34.754a1.246,1.246,0,0,0,1.092-1.847ZM3.355,45.792,18,19.175,32.646,45.792Z" transform="translate(-0.001 -15.344)"/>
      <path id="Path_164" data-name="Path 164" d="M164.894,128.982v9.007a1.562,1.562,0,0,0,3.123,0v-9.007a1.562,1.562,0,1,0-3.123,0Z" transform="translate(-148.456 -116.247)"/>
      <path id="Path_165" data-name="Path 165" d="M165.7,265.364a1.645,1.645,0,1,0,1.645,1.645A1.647,1.647,0,0,0,165.7,265.364Z" transform="translate(-147.704 -240.439)"/>
    </g>
  </g>
</svg>
