<svg xmlns="http://www.w3.org/2000/svg" width="36" height="36.794" viewBox="0 0 36 36.794">
  <g id="tax_consulting" data-name="tax consulting" transform="translate(-5.5)">
    <path id="Path_127" data-name="Path 127" d="M37.966,15.872H36.306V1.082A1.082,1.082,0,0,0,35.223,0H6.582A1.082,1.082,0,0,0,5.5,1.082V28.8a3.619,3.619,0,0,0,3.567,3.606H15.4v3.3a1.082,1.082,0,0,0,1.082,1.082H40.418A1.082,1.082,0,0,0,41.5,35.711V19.406a3.538,3.538,0,0,0-3.534-3.534ZM7.664,2.164H34.141V15.872H14.023a3.525,3.525,0,0,0-3.531,3.383q0,.023,0,.045v9.5a1.414,1.414,0,1,1-2.827,0V2.164Zm4.688,28.08a3.609,3.609,0,0,0,.3-1.442V19.327a1.373,1.373,0,0,1,2.743.079V30.244Zm26.983,4.385H17.563V19.406h0a3.55,3.55,0,0,0-.276-1.37H37.966a1.371,1.371,0,0,1,1.369,1.37Z" transform="translate(0 0)"/>
    <path id="Path_128" data-name="Path 128" d="M69.15,74.193h1.074v4.12a1.055,1.055,0,1,0,2.109,0v-4.12h1.074a1.055,1.055,0,0,0,0-2.109H69.15a1.055,1.055,0,0,0,0,2.109Z" transform="translate(-58.194 -67.016)"/>
    <path id="Path_129" data-name="Path 129" d="M170.432,79.369a1.055,1.055,0,0,0,1.055-1.055V77.7h2.149v.61a1.055,1.055,0,1,0,2.109,0V75.269a3.184,3.184,0,1,0-6.367,0v3.045A1.055,1.055,0,0,0,170.432,79.369Zm2.129-5.174a1.076,1.076,0,0,1,1.074,1.074v.326h-2.149v-.326A1.076,1.076,0,0,1,172.561,74.194Z" transform="translate(-151.987 -67.017)"/>
    <path id="Path_130" data-name="Path 130" d="M279.725,79.126a1.055,1.055,0,0,0,1.484-.144l1.315-1.6,1.315,1.6a1.055,1.055,0,1,0,1.629-1.34l-1.578-1.917,1.578-1.917a1.055,1.055,0,1,0-1.629-1.34l-1.315,1.6-1.315-1.6a1.055,1.055,0,0,0-1.629,1.34l1.578,1.917-1.578,1.917A1.055,1.055,0,0,0,279.725,79.126Z" transform="translate(-253.973 -67.015)"/>
    <path id="Path_131" data-name="Path 131" d="M214.16,315H206.9a1.055,1.055,0,1,0,0,2.109h7.265a1.055,1.055,0,1,0,0-2.109Z" transform="translate(-185.753 -292.238)"/>
    <path id="Path_132" data-name="Path 132" d="M214.16,387H206.9a1.055,1.055,0,0,0,0,2.109h7.265a1.055,1.055,0,0,0,0-2.109Z" transform="translate(-185.753 -359.036)"/>
    <path id="Path_133" data-name="Path 133" d="M375.45,315h-3.562a1.055,1.055,0,0,0,0,2.109h3.562a1.055,1.055,0,1,0,0-2.109Z" transform="translate(-338.731 -292.238)"/>
    <path id="Path_134" data-name="Path 134" d="M375.45,387h-3.562a1.055,1.055,0,0,0,0,2.109h3.562a1.055,1.055,0,0,0,0-2.109Z" transform="translate(-338.731 -359.036)"/>
  </g>
</svg>
