<svg id="tourism_and_hospitality" data-name="tourism and hospitality" xmlns="http://www.w3.org/2000/svg" width="35.2" height="35.201" viewBox="0 0 35.2 35.201">
  <g id="Group_941" data-name="Group 941">
    <path id="Path_245" data-name="Path 245" d="M35.2,4.188A4.146,4.146,0,0,0,31.056,0h-.044a4.114,4.114,0,0,0-2.948,1.275L21.9,7.7,5.78,2.36,1.019,7.121l13.473,8.3L8.948,21.194,4.6,20.48,0,25.077,7.5,27.7l2.626,7.5,4.6-4.6-.714-4.351,5.777-5.544,8.3,13.473,4.761-4.761L27.505,13.3l6.42-6.161A4.115,4.115,0,0,0,35.2,4.188ZM32.5,5.647l-7.36,7.063,5.345,16.15-2.013,2.013L20.2,17.447l-8.407,8.067.719,4.378-1.526,1.526L9.118,26.083,3.782,24.214l1.526-1.526,4.378.719L17.753,15,4.327,6.733,6.34,4.72l16.15,5.345L29.553,2.7a2.065,2.065,0,0,1,1.48-.64h.022A2.081,2.081,0,0,1,32.5,5.647Z"/>
  </g>
</svg>
