<svg id="transport_and_mobility" data-name="transport and mobility" xmlns="http://www.w3.org/2000/svg" width="35.552" height="35.552" viewBox="0 0 35.552 35.552">
  <path id="Path_230" data-name="Path 230" d="M35.552,9.374a3.128,3.128,0,0,0-3.125-3.125H31.386V3.194A3.2,3.2,0,0,0,28.191,0H7.36A3.2,3.2,0,0,0,4.166,3.194V6.249H3.125A3.128,3.128,0,0,0,0,9.374V14.6H4.166V30.672H5.555v1.755A3.128,3.128,0,0,0,8.68,35.552h1.408a3.128,3.128,0,0,0,3.125-3.125V30.672h9.127v1.755a3.128,3.128,0,0,0,3.125,3.125h1.408A3.128,3.128,0,0,0,30,32.427V30.672h1.389V14.6h4.166ZM7.36,2.083H28.191A1.112,1.112,0,0,1,29.3,3.194v.972H6.249V3.194A1.112,1.112,0,0,1,7.36,2.083ZM2.083,12.518V9.374A1.043,1.043,0,0,1,3.125,8.332H4.166v4.186ZM29.3,26.506v2.083H22.677V24.422h-9.8v4.166H6.249V26.506h4.2V24.422h-4.2V20.429a78.939,78.939,0,0,0,11.527.848A78.939,78.939,0,0,0,29.3,20.429v3.993h-4.2v2.083Zm-8.709,2.083H14.958V26.506h5.636Zm-9.464,3.838a1.043,1.043,0,0,1-1.042,1.042H8.68a1.043,1.043,0,0,1-1.042-1.042V30.672h3.491Zm16.784,0a1.043,1.043,0,0,1-1.042,1.042H25.464a1.043,1.043,0,0,1-1.042-1.042V30.672h3.491Zm1.389-14.1a76.768,76.768,0,0,1-23.053,0V6.249H29.3V18.324Zm4.166-5.806H31.386V8.332h1.042a1.043,1.043,0,0,1,1.042,1.042Z"/>
</svg>
