<svg xmlns="http://www.w3.org/2000/svg" width="36.2" height="36.2" viewBox="0 0 36.2 36.2">
  <g id="valuation" transform="translate(0.1 0.1)">
    <path id="Path_189" data-name="Path 189" d="M33.882,19.2H23.576a2.12,2.12,0,0,0-2.111,1.963l-2.406-.6V6.461a3.318,3.318,0,1,0-2.118,0V20.032l-2.4-.6v-.373a2.12,2.12,0,0,0-2.118-2.118H2.118A2.12,2.12,0,0,0,0,19.059v2.4a2.12,2.12,0,0,0,2.118,2.118H12.424a2.12,2.12,0,0,0,2.111-1.963l2.406.6v7.15H10.024a2.12,2.12,0,0,0-2.118,2.118v2.4A2.12,2.12,0,0,0,10.024,36H25.976a2.12,2.12,0,0,0,2.118-2.118v-2.4a2.12,2.12,0,0,0-2.118-2.118H19.059v-6.62l2.4.6v.373a2.12,2.12,0,0,0,2.118,2.118H33.882A2.12,2.12,0,0,0,36,23.718v-2.4A2.12,2.12,0,0,0,33.882,19.2ZM12.424,21.459H2.118v-2.4H12.424C12.425,21.517,12.431,21.459,12.424,21.459ZM25.976,31.482c0,2.452.007,2.4,0,2.4H10.024v-2.4ZM18,4.518a1.2,1.2,0,1,1,1.2-1.2A1.2,1.2,0,0,1,18,4.518Zm15.882,19.2H23.576v-2.4H33.882C33.884,23.77,33.889,23.718,33.882,23.718Z" stroke="#000" stroke-width="0.2"/>
    <path id="Path_190" data-name="Path 190" d="M330.08,61.21h7.014a2.15,2.15,0,0,0,2.147-2.147c0-6.3.022-5.9-.053-6.129-.1-.3.079-.047-4-4.631a2.148,2.148,0,0,0-3.209,0c-4.1,4.615-3.862,4.312-3.959,4.534-.128.292-.09-.05-.09,6.227A2.15,2.15,0,0,0,330.08,61.21Zm3.507-11.481,2.19,2.464H331.4Zm-3.507,4.611h7.014v4.723c-.007,0-.419,0-7.015,0Z" transform="translate(-304.958 -44.176)" stroke="#000" stroke-width="0.2"/>
    <path id="Path_191" data-name="Path 191" d="M44.718,12.508a5.664,5.664,0,0,0,2.509.8V13.7a1.075,1.075,0,0,0,1.147,1.071h0a1.071,1.071,0,0,0,.648-.276c.407-.353.351-.819.351-1.269,3.672-.821,4.543-5.439.785-6.817-.248-.091-3.072-.878-3.432-1.433a.774.774,0,0,1,.072-.8c.459-.765,1.887-.8,2.714-.5.543.189.618.411,1,.487a1.081,1.081,0,0,0,.744-1.992,4.863,4.863,0,0,0-1.884-.739A2.029,2.029,0,0,0,49.33.794a1.075,1.075,0,0,0-2.08.085,2.82,2.82,0,0,0-.023.615c-2.674.63-3.4,3.413-2.086,4.938a7.943,7.943,0,0,0,3.233,1.661c.857.277,1.516.387,1.883.895.552.766-.185,2.149-1.883,2.2a4.191,4.191,0,0,1-2.617-.562,1.074,1.074,0,1,0-1.039,1.879Z" transform="translate(-41.003 -0.027)" stroke="#000" stroke-width="0.2"/>
  </g>
</svg>
